<svg id="Layer_1" data-name="Layer 1" xmlns="http://www.w3.org/2000/svg" viewBox="0 0 40 40"><defs><style>.cls-1{fill:#fff;stroke:#000;stroke-linejoin:round;stroke-width:0.64px;}</style></defs><title>Vicarious_NavIcons</title><polygon class="cls-1" points="29.38 25 19.95 20.89 29.38 16.78 38.82 20.89 29.38 25"/><polygon class="cls-1" points="29.38 33.23 19.95 29.12 19.95 20.89 29.38 25 29.38 33.23"/><polygon class="cls-1" points="29.38 33.23 38.82 29.12 38.82 20.89 29.38 25 29.38 33.23"/><polygon class="cls-1" points="10.52 25 1.08 20.89 10.52 16.78 19.95 20.89 10.52 25"/><polygon class="cls-1" points="10.52 33.23 1.08 29.12 1.08 20.89 10.52 25 10.52 33.23"/><polygon class="cls-1" points="10.52 33.23 19.95 29.12 19.95 20.89 10.52 25 10.52 33.23"/><polygon class="cls-1" points="19.95 29.12 10.52 25 19.95 20.89 29.38 25 19.95 29.12"/><polygon class="cls-1" points="19.95 37.34 10.52 33.23 10.52 25 19.95 29.12 19.95 37.34"/><polygon class="cls-1" points="19.95 37.34 29.38 33.23 29.38 25 19.95 29.12 19.95 37.34"/><polygon class="cls-1" points="29.38 16.77 19.95 12.66 19.95 4.43 29.38 8.54 29.38 16.77"/><polygon class="cls-1" points="10.52 16.77 19.95 12.66 19.95 4.43 10.52 8.54 10.52 16.77"/><polygon class="cls-1" points="19.95 12.66 10.52 8.54 19.95 4.43 29.38 8.54 19.95 12.66"/><polygon class="cls-1" points="19.95 20.88 10.52 16.77 10.52 8.54 19.95 12.66 19.95 20.88"/><polygon class="cls-1" points="29.38 16.78 19.95 12.67 29.38 8.55 38.82 12.67 29.38 16.78"/><polygon class="cls-1" points="29.38 25 19.95 20.89 19.95 12.67 29.38 16.78 29.38 25"/><polygon class="cls-1" points="29.38 25 38.82 20.89 38.82 12.67 29.38 16.78 29.38 25"/></svg>