<svg id="Layer_1" data-name="Layer 1" xmlns="http://www.w3.org/2000/svg" viewBox="0 0 40 40"><defs><style>.cls-1{fill:#fff;stroke:#000;stroke-linejoin:round;stroke-width:0.64px;}</style></defs><title>Vicarious_NavIcons</title><polygon class="cls-1" points="26.39 7.14 26.39 27.39 7.97 31.8 7.97 15.32 26.39 7.14"/><polyline class="cls-1" points="13.58 24.03 7.55 27.04 13.42 31.05"/><polygon class="cls-1" points="20.21 37.34 16.49 19.16 13.42 17.77 13.41 29.17 7.96 26.7 7.96 15.32 1.84 12.55 1.84 29.04 7.35 31.53 7.35 31.53 13.4 34.26 13.4 34.27 20.21 37.34"/><polygon class="cls-1" points="20.29 4.38 1.84 12.55 7.96 15.32 26.4 7.14 20.29 4.38"/><polygon class="cls-1" points="31.86 9.61 13.42 17.77 14.84 18.41 33.28 10.23 31.86 9.61"/><polygon class="cls-1" points="34.91 10.99 16.49 19.16 20.21 37.34 38.65 29.17 34.91 10.99"/><polygon class="cls-1" points="31.86 9.61 13.42 17.77 16.48 19.16 34.91 10.99 31.86 9.61"/></svg>