<svg id="Layer_1" data-name="Layer 1" xmlns="http://www.w3.org/2000/svg" viewBox="0 0 40 40"><defs><style>.cls-1{fill:#fff;stroke:#000;stroke-linejoin:round;stroke-width:0.64px;}</style></defs><title>Vicarious_NavIcons</title><polygon class="cls-1" points="19.82 24.9 1.53 16.93 19.82 8.96 38.1 16.93 19.82 24.9"/><line class="cls-1" x1="19.82" y1="8.96" x2="19.82" y2="24.9"/><polygon class="cls-1" points="19.82 21.32 1.53 29.29 19.82 37.26 38.1 29.29 19.82 21.32"/><polygon class="cls-1" points="19.82 37.34 1.53 29.37 1.53 16.93 19.82 24.9 19.82 37.34"/><polygon class="cls-1" points="19.82 37.34 38.1 29.37 38.1 16.93 19.82 24.9 19.82 37.34"/><path class="cls-1" d="M18.28,3,13,11.83c-.76,1.22,1.13,3.76,4.22,5.67s6.2,2.46,7,1.24L29.46,9.9Z"/><ellipse class="cls-1" cx="23.87" cy="6.45" rx="2.6" ry="6.57" transform="translate(5.84 23.36) rotate(-58.28)"/></svg>